<svg id="Capa_1" enable-background="new 0 0 512 512" height="512" viewBox="0 0 512 512" width="512" xmlns="http://www.w3.org/2000/svg"><g><path d="m437.02 74.98c-48.352-48.351-112.64-74.98-181.02-74.98-42.468 0-84.533 10.614-121.65 30.696-3.643 1.971-4.998 6.522-3.027 10.165 1.972 3.643 6.521 5 10.166 3.028 34.93-18.899 74.528-28.889 114.511-28.889 132.888 0 241 108.112 241 241s-108.112 241-241 241-241-108.112-241-241c0-76.047 36.538-148.502 97.738-193.816 3.329-2.464 4.029-7.161 1.564-10.49-2.464-3.33-7.162-4.03-10.49-1.564-31.498 23.32-57.612 54.017-75.519 88.77-18.773 36.436-28.293 75.834-28.293 117.1 0 68.38 26.629 132.667 74.98 181.02 48.352 48.351 112.64 74.98 181.02 74.98s132.668-26.629 181.02-74.98c48.351-48.353 74.98-112.64 74.98-181.02s-26.629-132.667-74.98-181.02z"/><path d="m320.262 462.241c43.006-13.428 81.645-40.815 108.797-77.117 28.092-37.559 42.941-82.208 42.941-129.124 0-119.103-96.897-216-216-216s-216 96.897-216 216 96.897 216 216 216c9.617 0 19.296-.642 28.77-1.908 4.105-.549 6.988-4.322 6.439-8.428s-4.314-6.988-8.428-6.44c-8.816 1.178-17.827 1.776-26.781 1.776-110.832 0-201-90.168-201-201s90.168-201 201-201 201 90.168 201 201c0 88.424-56.747 165.552-141.209 191.922-3.954 1.234-6.158 5.44-4.924 9.395s5.442 6.159 9.395 4.924z"/><path d="m239.419 75.917c-3.133.977-5.268 3.878-5.268 7.16v40.876c0 4.142 3.357 7.5 7.5 7.5s7.5-3.358 7.5-7.5v-16.817l13.97 20.23c2.078 3 5.718 4.315 9.061 3.27 3.39-1.059 5.667-4.299 5.667-8.136l-.383-39.573c-.04-4.117-3.39-7.427-7.498-7.427-.025 0-.05 0-.074 0-4.143.04-7.468 3.43-7.428 7.572l.167 17.188-14.81-21.445c-1.865-2.702-5.267-3.875-8.404-2.898z"/><path d="m428.099 243.21c4.143 0 7.5-3.358 7.5-7.5s-3.357-7.5-7.5-7.5h-17.099c-4.143 0-7.5 3.358-7.5 7.5v40.579c0 4.142 3.357 7.5 7.5 7.5h17.099c4.143 0 7.5-3.358 7.5-7.5s-3.357-7.5-7.5-7.5h-9.599v-5.29h8.338c4.143 0 7.5-3.358 7.5-7.5s-3.357-7.5-7.5-7.5h-8.338v-5.29h9.599z"/><path d="m256.974 422.302c-5.052 0-7.946-2.761-8.713-3.607-2.783-3.07-7.526-3.301-10.594-.521-3.069 2.781-3.303 7.524-.521 10.594 4.916 5.423 12.143 8.534 19.828 8.534 9.786 0 18.019-6.333 19.577-15.058 1.134-6.354-1.701-15.308-13.426-19.633-4.553-1.679-8.822-3.498-10.594-4.267-.033-.076-.048-.18-.026-.332.083-.572.661-1.061 1.588-1.34 4.488-1.352 8.879 2.016 9.083 2.176 3.169 2.61 7.86 2.187 10.509-.964 2.665-3.171 2.256-7.902-.915-10.567-3.883-3.264-13.095-7.993-23.003-5.007-6.551 1.973-11.19 7.173-12.109 13.571-.87 6.06 1.76 11.891 6.862 15.218.332.216.68.405 1.041.566.24.107 5.949 2.649 12.374 5.018 2.567.947 3.974 2.23 3.85 2.923-.164.912-1.789 2.696-4.811 2.696z"/><path d="m129.296 228.243c-4.063-.808-8.011 1.83-8.819 5.892l-2.907 14.608-4.753-15.428c-1.22-3.959-5.418-6.178-9.376-4.959-2.619.807-4.469 2.92-5.074 5.402l-4.64 14.992-2.904-14.682c-.804-4.063-4.747-6.704-8.813-5.902-4.063.804-6.706 4.75-5.902 8.813l7.979 40.337c.621 3.068 3.648 6.339 8.288 6.66 2.555-.009 6.544-1.954 7.98-5.909l5.289-17.085 5.264 17.087c.818 2.622 3.777 5.642 8.094 5.907 2.708.011 7.226-2.345 8.176-6.663l8.011-40.25c.807-4.063-1.831-8.011-5.893-8.82z"/><path d="m163.723 152.409-19.799-19.799c-2.93-2.929-7.678-2.929-10.607 0s-2.929 7.678 0 10.606l19.799 19.799c2.346 2.163 6.712 3.401 10.607 0 2.928-2.929 2.928-7.678 0-10.606z"/><path d="m137.913 380.88c1.919 0 3.839-.732 5.304-2.197l19.799-19.799c2.929-2.929 2.929-7.678 0-10.606-2.93-2.929-7.678-2.929-10.607 0l-19.799 19.799c-2.929 2.929-2.929 7.678 0 10.606 1.464 1.464 3.384 2.197 5.303 2.197z"/><path d="m348.277 359.591 19.799 19.799c2.346 2.163 6.712 3.401 10.607 0 2.929-2.929 2.929-7.678 0-10.606l-19.799-19.799c-2.93-2.929-7.678-2.929-10.607 0-2.928 2.929-2.928 7.678 0 10.606z"/><path d="m354.288 165.919c1.919 0 3.839-.732 5.304-2.197l19.799-19.799c2.929-2.929 2.929-7.678 0-10.606-2.93-2.929-7.678-2.929-10.607 0l-19.799 19.799c-2.929 2.929-2.929 7.678 0 10.606 1.464 1.465 3.384 2.197 5.303 2.197z"/><path d="m322.534 188.466-11.129 21.246c-1.922 3.669-.506 8.202 3.163 10.124 3.668 1.921 8.202.506 10.124-3.164l14.314-27.327c2.623-5.008 1.7-11.058-2.298-15.055-3.996-3.996-10.042-4.919-15.054-2.297l-87.246 45.7c-7.177 3.76-12.958 9.54-16.716 16.716l-45.7 87.246c-2.623 5.008-1.7 11.058 2.298 15.055 2.48 2.48 5.751 3.777 9.073 3.777 2.03 0 4.08-.485 5.98-1.48l87.246-45.7c7.177-3.76 12.958-9.54 16.716-16.716l15.082-28.793c1.922-3.669.506-8.202-3.163-10.124-3.668-1.92-8.202-.507-10.124 3.164l-15.082 28.793c-.147.282-.314.549-.472.824l-39.002-39.002c.275-.158.543-.325.825-.472zm-134.068 134.068 41.919-80.027 38.109 38.108z"/></g></svg>