<?xml version="1.0" encoding="iso-8859-1"?>
<!-- Generator: Adobe Illustrator 19.0.0, SVG Export Plug-In . SVG Version: 6.00 Build 0)  -->
<svg version="1.1" id="Capa_1" xmlns="http://www.w3.org/2000/svg" xmlns:xlink="http://www.w3.org/1999/xlink" x="0px" y="0px"
	 viewBox="0 0 512 512" style="enable-background:new 0 0 512 512;" xml:space="preserve">
<g>
	<g>
		<path d="M428.874,63.242C388.091,22.46,333.868,0,276.194,0c-57.675,0-111.898,22.46-152.679,63.242
			c-40.362,40.362-62.777,93.883-63.234,150.892l-39.292,78.584c-1.756,3.512-0.763,7.784,2.604,9.804l36.18,21.858V440.36
			c0,4.15,3.866,8.016,8.016,8.016h72.141v56.11c0,4.15,3.365,7.515,7.515,7.515s7.515-3.365,7.515-7.515V440.36
			c0-4.15-2.864-7.014-7.014-7.014H74.801V320.125c0-2.639-1.134-5.086-3.398-6.444l-33.986-20.467l37.029-73.932
			c0.522-1.044,0.825-2.193,0.825-3.361C75.27,105.149,165.405,15.029,276.179,15.029s200.9,90.12,200.9,200.892
			c0,62.247-28.41,119.965-77.516,158.356c-1.822,1.424-3.133,3.608-3.133,5.921v124.287c0,4.15,3.365,7.515,7.515,7.515
			s7.515-3.365,7.515-7.515V383.824c51.1-41.246,80.407-102.228,80.407-167.902C491.865,158.247,469.655,104.024,428.874,63.242z"/>
	</g>
</g>
<g>
	<g>
		<path d="M310.901,75.133c-2.329-3.436-6.984-4.333-10.42-2.006c-3.436,2.329-4.333,7.001-2.005,10.436
			c6.726,9.926,10.282,21.522,10.282,33.534c0,27.717-19.674,52.302-46.691,58.457c-3.42,0.779-5.912,3.819-5.912,7.327v31.662
			c0,4.123-3.392,7.477-7.515,7.477s-7.515-3.354-7.515-7.477v-44.975c0-4.123,3.458-7.477,7.581-7.477
			c24.81,0,45.046-20.184,45.046-44.994s-20.158-44.994-44.968-44.994c-24.81,0-44.981,20.184-44.981,44.994
			c0,4.123-3.348,7.477-7.471,7.477s-7.474-3.355-7.474-7.477c0-33.056,26.893-59.948,59.949-59.948
			c9.457,0,18.511,2.148,26.906,6.384c3.703,1.87,8.224,0.382,10.095-3.323c1.87-3.705,0.382-8.224-3.323-10.095
			c-10.515-5.305-21.845-7.996-33.676-7.996c-41.343,0-74.977,33.635-74.977,74.977c0,12.41,10.097,22.506,22.506,22.506
			s22.506-10.097,22.506-22.506c0-16.522,13.442-29.964,29.964-29.964c16.522,0,29.965,13.442,29.965,29.964
			s-13.545,29.965-30.068,29.965c-12.41,0-22.61,10.097-22.61,22.506v44.975c0,12.41,10.134,22.506,22.544,22.506
			c12.41,0,22.544-10.096,22.544-22.506V188.62c14.027-4.419,26.587-12.954,35.883-24.452c10.739-13.283,16.687-30,16.687-47.071
			C323.753,102.068,319.32,87.557,310.901,75.133z"/>
	</g>
</g>
<g>
	<g>
		<path d="M248.81,244.508c-12.41,0-22.506,10.097-22.506,22.506s10.097,22.506,22.506,22.506c12.41,0,22.506-10.097,22.506-22.506
			S261.219,244.508,248.81,244.508z M248.81,274.491c-4.123,0-7.477-3.355-7.477-7.477c0-4.122,3.355-7.477,7.477-7.477
			c4.122,0,7.477,3.355,7.477,7.477C256.287,271.137,252.932,274.491,248.81,274.491z"/>
	</g>
</g>
<g>
	<g>
		<path d="M392.144,117.077c-34.143,0-61.899,27.777-61.899,61.92c0,10.81,8.805,19.604,19.615,19.604s19.61-8.794,19.61-19.604
			c0-12.521,10.193-22.709,22.715-22.709c12.522,0,22.71,10.188,22.71,22.71s-10.288,22.71-22.811,22.71
			c-10.81,0-19.705,8.794-19.705,19.604v36.27c0,10.81,8.728,19.604,19.538,19.604s19.538-8.794,19.538-19.604v-19.851
			c11.021-3.735,21.278-10.646,28.727-19.86c8.869-10.97,13.837-24.776,13.837-38.875
			C454.022,144.854,426.287,117.077,392.144,117.077z M402.442,224.722c-3.42,0.779-6.012,3.819-6.012,7.327v25.534
			c0,2.523-1.986,4.575-4.509,4.575s-4.509-2.052-4.509-4.575v-36.27c0-2.523,2.152-4.575,4.675-4.575
			c20.81,0,37.79-16.93,37.79-37.74s-16.905-37.74-37.715-37.74s-37.717,16.929-37.717,37.739c0,2.523-2.052,4.575-4.575,4.575
			c-2.523,0-4.575-2.052-4.575-4.575c0-25.856,21.035-46.891,46.891-46.891s46.891,21.035,46.891,46.891
			C439.078,200.678,423.573,219.909,402.442,224.722z"/>
	</g>
</g>
<g>
	<g>
		<path d="M392.186,280.294c-10.81,0-19.604,8.794-19.604,19.604s8.794,19.604,19.604,19.604c10.81,0,19.604-8.794,19.604-19.604
			S402.996,280.294,392.186,280.294z M392.186,304.474c-2.523,0-4.575-2.052-4.575-4.575c0-2.523,2.052-4.575,4.575-4.575
			c2.523,0,4.575,2.052,4.575,4.575C396.761,302.422,394.709,304.474,392.186,304.474z"/>
	</g>
</g>
<g>
	<g>
		<path d="M149.6,197.356c-31.577,0-57.266,25.689-57.266,57.266c0,10.24,8.33,18.57,18.57,18.57s18.57-8.33,18.57-18.57
			c0-11.097,9.028-20.124,20.124-20.124s20.124,9.028,20.124,20.124s-9.088,20.124-20.184,20.124c-10.24,0-18.63,8.33-18.63,18.57
			v33.168c0,10.24,8.296,18.57,18.536,18.57c10.24,0,18.536-8.33,18.536-18.57v-17.693c23.045-7.853,38.789-29.738,38.789-54.17
			C206.771,223.046,181.177,197.356,149.6,197.356z M158.892,295.808c-3.42,0.779-5.94,3.82-5.94,7.327v23.35
			c0,1.953-1.554,3.541-3.507,3.541s-3.507-1.588-3.507-3.541v-33.168c0-1.952,1.648-3.541,3.601-3.541
			c19.384,0,35.184-15.77,35.184-35.154s-15.755-35.154-35.139-35.154s-35.147,15.77-35.147,35.154c0,1.953-1.585,3.541-3.537,3.541
			c-1.952,0-3.539-1.588-3.539-3.541c0-23.289,18.948-42.237,42.237-42.237c23.288,0,42.189,18.947,42.189,42.237
			C191.789,274.15,177.927,291.471,158.892,295.808z"/>
	</g>
</g>
<g>
	<g>
		<path d="M149.6,346.609c-10.24,0-18.57,8.33-18.57,18.57s8.33,18.57,18.57,18.57s18.57-8.33,18.57-18.57
			S159.84,346.609,149.6,346.609z M149.6,368.72c-1.953,0-3.541-1.588-3.541-3.541s1.588-3.541,3.541-3.541s3.541,1.588,3.541,3.541
			S151.553,368.72,149.6,368.72z"/>
	</g>
</g>
<g>
</g>
<g>
</g>
<g>
</g>
<g>
</g>
<g>
</g>
<g>
</g>
<g>
</g>
<g>
</g>
<g>
</g>
<g>
</g>
<g>
</g>
<g>
</g>
<g>
</g>
<g>
</g>
<g>
</g>
</svg>
