<svg id="Capa_1" enable-background="new 0 0 512 512" height="512" viewBox="0 0 512 512" width="512" xmlns="http://www.w3.org/2000/svg"><g><path d="m194.194 122.968c4.115.533 7.869-2.368 8.401-6.475 7.49-57.861 57.21-101.493 115.652-101.493 64.315 0 116.64 52.325 116.64 116.64 0 64.31-52.324 116.63-116.64 116.63-58.215 0-107.911-43.443-115.596-101.052-.548-4.106-4.32-6.992-8.426-6.442-4.106.548-6.99 4.32-6.442 8.426 8.675 65.03 64.762 114.068 130.464 114.068 72.586 0 131.64-59.049 131.64-131.63 0-72.586-59.054-131.64-131.64-131.64-65.958 0-122.073 49.253-130.528 114.567-.532 4.108 2.367 7.869 6.475 8.401z"/><path d="m318.251 232.327c55.521 0 100.691-45.169 100.691-100.69s-45.17-100.692-100.691-100.692h-.001c-55.516.001-100.682 45.164-100.689 100.679 0 .004-.001.008-.001.013 0 .004.001.009.001.013.007 55.515 45.174 100.677 100.69 100.677zm-77.541-108.19h-7.802c3.598-41.274 36.567-74.244 77.842-77.843v7.802c0 4.142 3.358 7.5 7.5 7.5s7.5-3.358 7.5-7.5v-7.802c41.275 3.598 74.245 36.568 77.844 77.842h-7.573c-4.142 0-7.5 3.358-7.5 7.5s3.358 7.5 7.5 7.5h7.573c-3.598 41.275-36.568 74.245-77.843 77.843v-7.572c0-4.142-3.358-7.5-7.5-7.5s-7.5 3.358-7.5 7.5v7.572c-41.274-3.598-74.244-36.568-77.843-77.842h7.801c4.142 0 7.5-3.358 7.5-7.5s-3.357-7.5-7.499-7.5z"/><path d="m276.689 182.796 65.809-21.88c2.211-.736 4.008-2.529 4.747-4.74l22.048-65.977c1.708-7.324-2.292-11.824-9.49-9.49l-64.634 21.599c-2.771.447-5.209 2.565-6.083 5.196l-21.88 65.809c-2.329 7.062 2.796 11.812 9.483 9.483zm73.615-83.097-13.426 40.175-26.599-26.8zm-50.75 23.863 26.734 26.936-40.126 13.341z"/><path d="m486.443 270.562c-7.192-12.466-24.385-17.644-37.517-10.066l-95.871 55.36c-3.139-11.715-13.847-20.366-26.539-20.366h-45.771c-18.478-7.907-38.49-15.47-58.81-15.47-39.381 0-72.863 27.499-92.542 59.699l-14.746-14.746c-3.535-2.929-7.071-2.929-10.606 0l-15.998 15.998-8.214-8.214c-2.929-2.929-7.678-2.929-10.606 0l-44.79 44.79c-2.929 2.929-2.929 7.678 0 10.606l49.27 49.27c2.929 2.929 7.678 2.929 10.606 0 2.929-2.929 2.929-7.678 0-10.606l-43.966-43.967 34.184-34.184 111.043 111.044-34.184 34.184-43.966-43.967c-2.929-2.929-7.678-2.929-10.606 0-2.929 2.929-2.929 7.678 0 10.606l49.27 49.27c3.535 2.929 7.071 2.929 10.606 0l66.09-66.093c2.929-2.929 2.929-7.678 0-10.606l-14.654-14.654h60.741c4.142 0 7.5-3.358 7.5-7.5s-3.358-7.5-7.5-7.5h-75.741l-52.775-52.775c8.069-14.061 35.811-55.655 81.586-55.655 20.477 0 38.455 15.47 57.41 15.47h47.17c15.449 0 16.776 24.932.002 24.932h-90.56c-4.142 0-7.5 3.358-7.5 7.5s3.358 7.5 7.5 7.5h90.56c11.082 0 20.815-6.497 25.146-16.444l104.76-60.492c14.061-8.115 26.161 13.705 12.477 21.596-.305.175-127.297 99.402-127.297 99.402-10.879 8.517-26.579 10.615-40.047 8.966-4.142 0-7.5 3.358-7.5 7.5s3.358 7.5 7.5 7.5c16.95 1.809 35.644-1.469 49.289-12.151l126.043-98.515c12.941-9.854 16.125-22.261 9.553-37.222zm-279.573 167.845-10.692 10.693-97.525-97.524 10.693-10.693z"/><path d="m75.005 374.405c-2.958-2.9-7.706-2.853-10.606.104-2.9 2.958-2.854 7.706.104 10.606l15.531 15.231c3.55 2.894 7.085 2.86 10.606-.104 2.9-2.958 2.854-7.706-.104-10.606z"/></g></svg>